<?xml version="1.0" encoding="UTF-8"?>
<svg width="95px" height="92px" viewBox="0 0 95 92" version="1.1" xmlns="http://www.w3.org/2000/svg" xmlns:xlink="http://www.w3.org/1999/xlink">
    <!-- Generator: Sketch 47 (45396) - http://www.bohemiancoding.com/sketch -->
    <title>Shape</title>
    <desc>Created with Sketch.</desc>
    <defs></defs>
    <g id="Page-1" stroke="none" stroke-width="1" fill="none" fill-rule="evenodd">
        <g id="noun_702390_cc" fill-rule="nonzero" fill="#00AD8C">
            <path d="M80,13.1 L65,13.1 L65,9.6 C65,4.6 61,0.6 56,0.6 L38,0.6 C33,0.6 29,4.6 29,9.6 L29,13.1 L14,13.1 C6.3,13.1 0,19.4 0,27.1 L0,53.4 C0,56.2 1.9,58.5 4.5,59.2 L4.5,77.4 C4.5,85.1 10.8,91.4 18.5,91.4 L75.6,91.4 C83.3,91.4 89.6,85.1 89.6,77.4 L89.6,59.2 C92.2,58.5 94.1,56.2 94.1,53.4 L94.1,27.1 C94,19.4 87.8,13.1 80,13.1 Z M81.6,77.4 C81.6,80.7 78.9,83.4 75.6,83.4 L18.4,83.4 C15.1,83.4 12.4,80.7 12.4,77.4 L12.4,59.6 L35.3,59.6 L35.3,67.2 L58.5,67.2 L58.5,59.6 L81.4,59.6 L81.4,77.4 L81.6,77.4 Z M8,27.1 C8,23.8 10.7,21.1 14,21.1 L29,21.1 L65,21.1 L80,21.1 C83.3,21.1 86,23.8 86,27.1 L86,51.4 L58.6,51.4 L58.6,44 L35.4,44 L35.4,51.4 L8,51.4 L8,27.1 Z M37,9.6 C37,9 37.4,8.6 38,8.6 L56,8.6 C56.6,8.6 57,9 57,9.6 L57,13.1 L37,13.1 L37,9.6 Z" id="Shape"></path>
        </g>
    </g>
</svg>
