<?xml version="1.0" encoding="UTF-8"?>
<svg width="92px" height="78px" viewBox="0 0 92 78" version="1.1" xmlns="http://www.w3.org/2000/svg" xmlns:xlink="http://www.w3.org/1999/xlink">
    <!-- Generator: Sketch 47 (45396) - http://www.bohemiancoding.com/sketch -->
    <title>Group</title>
    <desc>Created with Sketch.</desc>
    <defs></defs>
    <g id="Page-1" stroke="none" stroke-width="1" fill="none" fill-rule="evenodd">
        <g id="noun_922379_cc" transform="translate(0.000000, -1.000000)" fill-rule="nonzero" fill="#00AD8C">
            <g id="Group" transform="translate(0.000000, 0.637820)">
                <path d="M46,0.36217 C39.96042,0.36217 35,5.32257 35,11.36217 C35,15.43356 37.27439,18.9918 40.59375,20.8934 C40.09855,20.9894 39.60431,21.116 39.125,21.2372 C37.36835,20.0467 35.26484,19.3622 33,19.3622 C32.30998,19.3622 31.62481,19.4262 30.96875,19.5497 C30.53793,13.89361 25.75949,9.36217 20,9.36217 C13.9604,9.36217 9,14.32257 9,20.3622 C9,24.4101 11.24331,27.9836 14.53125,29.8934 C11.46128,30.4908 8.67262,31.5743 6.34375,33.0809 C2.69301,35.4427 0,39.0307 0,43.2684 L0,54.3622 C0.00016,55.9329 1.42925,57.362 3,57.3622 C6.84615,57.3622 9.51798,57.3622 13,57.3622 L13,64.3622 C13.00016,65.9329 14.42925,67.362 16,67.3622 C19.84615,67.3622 22.51798,67.3622 26,67.3622 L26,75.3622 C26.00016,76.9329 27.42925,78.362 29,78.3622 L63,78.3622 C64.57075,78.362 65.99984,76.9329 66,75.3622 L66,67.3622 C69.48202,67.3622 72.15385,67.3622 76,67.3622 C77.57075,67.362 78.99984,65.9329 79,64.3622 L79,57.3622 C82.48202,57.3622 85.15385,57.3622 89,57.3622 C90.57075,57.362 91.99984,55.9329 92,54.3622 L92,43.2684 C92,39.0307 89.30699,35.4427 85.65625,33.0809 C83.32738,31.57429 80.53872,30.4908 77.46875,29.8934 C80.75669,27.9836 83,24.4101 83,20.3622 C83,14.32257 78.0396,9.36216 72,9.36216 C66.24051,9.36216 61.46207,13.8936 61.03125,19.5497 C60.37519,19.426 59.69002,19.3622 59,19.3622 C56.74484,19.3622 54.65842,20.056 52.90625,21.2372 C52.41735,21.1129 51.91167,20.9911 51.40625,20.8934 C54.72561,18.9918 57,15.43356 57,11.36217 C57,5.32257 52.03957,0.36217 46,0.36217 Z M46,6.36217 C48.79696,6.36217 51,8.56521 51,11.36217 C51,14.15913 48.79696,16.36217 46,16.36217 C43.20304,16.36217 41,14.15913 41,11.36217 C41,8.56521 43.20304,6.36217 46,6.36217 Z M20,15.36217 C22.79696,15.36217 25,17.5652 25,20.3622 C25,23.1591 22.79696,25.3622 20,25.3622 C17.20304,25.3622 15,23.1591 15,20.3622 C15,17.5652 17.20304,15.36217 20,15.36217 Z M72,15.36217 C74.79696,15.36217 77,17.5652 77,20.3622 C77,23.1591 74.79696,25.3622 72,25.3622 C69.20304,25.3622 67,23.1591 67,20.3622 C67,17.5652 69.20304,15.36217 72,15.36217 Z M33,25.3622 C35.79696,25.3622 38,27.5652 38,30.3622 C38,31.0368 37.89002,31.6855 37.65625,32.2684 C37.18456,32.8211 36.76292,33.4119 36.40625,34.0497 C35.51882,34.8678 34.32535,35.3622 33,35.3622 C30.20304,35.3622 28,33.1591 28,30.3622 C28,27.5652 30.20304,25.3622 33,25.3622 Z M59,25.3622 C61.79696,25.3622 64,27.5652 64,30.3622 C64,33.1591 61.79696,35.3622 59,35.3622 C57.67465,35.3622 56.48118,34.8678 55.59375,34.0497 C55.23708,33.4119 54.81545,32.8211 54.34375,32.2684 C54.10998,31.6855 54,31.0368 54,30.3622 C54,27.5652 56.20304,25.3622 59,25.3622 Z M46,26.3622 C46.92028,26.3622 47.81588,26.4472 48.6875,26.5497 C48.44437,27.2011 48.27184,27.8794 48.15625,28.5809 C47.46126,28.4414 46.73381,28.3622 46,28.3622 C45.26619,28.3622 44.53874,28.4412 43.84375,28.5809 C43.72816,27.8794 43.55563,27.2011 43.3125,26.5497 C44.18406,26.4471 45.07981,26.3622 46,26.3622 Z M46,34.3622 C48.79696,34.3622 51,36.5652 51,39.3622 C51,42.1591 48.79696,44.3622 46,44.3622 C43.20304,44.3622 41,42.1591 41,39.3622 C41,36.5652 43.20304,34.3622 46,34.3622 Z M20,35.3622 C21.17401,35.3622 22.29941,35.4532 23.375,35.6122 C24.35456,37.3903 25.80502,38.8808 27.5625,39.8934 C24.48057,40.4895 21.68027,41.5693 19.34375,43.0809 C16.25338,45.0802 13.85272,47.9553 13.1875,51.3622 L6,51.3622 L6,43.2684 C6,41.5968 7.09899,39.7261 9.59375,38.1122 C12.08851,36.49819 15.82157,35.3622 20,35.3622 Z M72,35.3622 C76.17843,35.3622 79.91149,36.4982 82.40625,38.1122 C84.90101,39.7261 86,41.5968 86,43.2684 L86,51.3622 L78.8125,51.3622 C78.14728,47.9553 75.74662,45.0802 72.65625,43.0809 C70.31973,41.5693 67.51943,40.4895 64.4375,39.8934 C66.19498,38.8808 67.64544,37.3903 68.625,35.6122 C69.70059,35.4528 70.82599,35.3622 72,35.3622 Z M33,45.3622 C34.4124,45.3622 35.77945,45.5045 37.0625,45.7372 C37.98436,47.019 39.18961,48.1024 40.5625,48.8934 C37.48056,49.4893 34.68021,50.5689 32.34375,52.0809 C28.95724,54.2726 26.38435,57.5212 26.03125,61.3622 L19,61.3622 L19,53.2684 C19,51.5968 20.09899,49.7261 22.59375,48.1122 C25.08851,46.4982 28.82157,45.3622 33,45.3622 Z M59,45.3622 C63.17843,45.3622 66.91149,46.4982 69.40625,48.1122 C71.90101,49.7261 73,51.5968 73,53.2684 L73,61.3622 L65.96875,61.3622 C65.61565,57.5212 63.04276,54.2726 59.65625,52.0809 C57.31979,50.5689 54.51944,49.4893 51.4375,48.8934 C52.81039,48.1024 54.01564,47.019 54.9375,45.7372 C56.22055,45.5045 57.5876,45.3622 59,45.3622 Z M46,54.3622 C50.17813,54.3622 53.9114,55.4976 56.40625,57.1122 C58.9011,58.7268 60,60.5968 60,62.2684 L60,72.3622 L32,72.3622 L32,62.2684 C32,60.5968 33.0989,58.7268 35.59375,57.1122 C38.0886,55.4976 41.82187,54.3622 46,54.3622 L46,54.3622 Z" id="Shape"></path>
            </g>
        </g>
    </g>
</svg>
