<?xml version="1.0" encoding="UTF-8"?>
<svg width="96px" height="96px" viewBox="0 0 96 96" version="1.1" xmlns="http://www.w3.org/2000/svg" xmlns:xlink="http://www.w3.org/1999/xlink">
    <!-- Generator: Sketch 47 (45396) - http://www.bohemiancoding.com/sketch -->
    <title>Shape</title>
    <desc>Created with Sketch.</desc>
    <defs></defs>
    <g id="Page-1" stroke="none" stroke-width="1" fill="none" fill-rule="evenodd">
        <g id="noun_1039037_cc" transform="translate(-1.000000, -1.000000)" fill-rule="nonzero" fill="#000000">
            <path d="M89.26,22.87 C78.6914756,6.58371288 59.3527176,-1.73226414 40.2618873,1.8000234 C21.171057,5.33231095 6.08804017,20.0171889 2.04643638,39.0067201 C-1.99516741,57.9962513 5.8006244,77.5505006 21.7984331,88.5508175 C37.7962419,99.5511344 58.8453438,99.8310372 75.13,89.26 C97.3631602,74.8275453 103.689024,45.1053868 89.26,22.87 L89.26,22.87 Z M81.78,30.67 C78.95,30.94 77.54,28.22 75,28.22 C74.82,28.22 74.64,27.89 74.46,27.71 C73.78,27.03 73.15,26.29 72.46,25.71 C71,24.43 69.07,24.23 67.3,23.8 C66.9526504,23.7835419 66.6123466,23.9017527 66.35,24.13 C64.45,25.57 64.35,27.87 63.78,29.9 C63.69,30.21 64.04,30.76 64.34,31.05 C64.8967032,31.5089343 65.4885148,31.9235368 66.11,32.29 C65.72,32.57 65.39,32.84 65.11,33.08 C63.8113407,34.1269187 62.8254289,35.5106546 62.26,37.08 C62.0573491,37.6437111 61.9132565,38.2267833 61.83,38.82 C61.7622949,39.4608614 61.5540098,40.0788877 61.22,40.63 C60.7850025,41.2727548 60.8601197,42.1324287 61.4,42.69 L61.5,43 C61.6577321,43.5052191 62.0550996,43.8997455 62.5614375,44.0538483 C63.0677753,44.2079511 63.6175572,44.1016876 64.03,43.77 L64.15,43.65 C64.9292097,42.6726423 66.087333,42.0728235 67.3351867,42.0003183 C68.5830404,41.927813 69.8028393,42.3894651 70.69,43.27 C71.98,44.51 72.91,46.41 75.2,46.11 C75.35,46.11 75.54,46.3 75.69,46.44 L79.46,49.91 C78.8321304,50.2697605 78.1597075,50.5454539 77.46,50.73 C76.3,50.82 75.13,50.73 73.97,50.73 C73.1148013,50.831769 72.2665731,50.9853852 71.43,51.19 L71.12,51.66 C70.24,50.66 69.39,49.66 68.48,48.74 C67.17,47.39 66.01,47.35 64.76,48.74 C64.1228041,49.4615369 63.1780687,49.83348 62.22,49.74 C61.38,49.74 60.22,49.53 59.75,49.99 C58.28,51.57 55.75,52.45 55.9,55.25 C55.9,55.59 55.47,56.04 55.13,56.25 C54.2536165,56.9031838 53.8171663,57.9923781 54,59.07 C54.0762232,59.8782068 54.0762232,60.6917932 54,61.5 C53.8214239,62.6334723 54.2595203,63.7763324 55.15,64.5 C55.5248083,64.999237 55.7812656,65.5771208 55.9,66.19 C56.03,66.56 55.96,67.02 56.15,67.33 C57.44,69.46 60.97,69.94 62.65,68.09 C63.588433,67.0331545 65.1104118,66.7198059 66.39,67.32 C67.7519677,67.7629264 68.5966105,69.1228014 68.39,70.54 C68.2484494,71.5349909 68.2484494,72.5450091 68.39,73.54 C68.4999986,74.3469802 68.8169373,75.1117671 69.31,75.76 C70.37,77.04 70.36,79.69 69.77,81.23 C69.71,81.37 69.66,81.52 69.61,81.68 C59.1926084,88.2371589 46.2715697,89.4296987 34.83,84.89 L35.08,84.28 C35.1646123,84.138985 35.2768609,84.0165321 35.41,83.92 C37.96,81.5 40.5,79.08 43.07,76.68 C43.32,76.44 43.79,76.46 44.07,76.25 C45.21,75.43 46.41,74.71 46.39,72.99 C46.4557759,72.2523436 46.7493316,71.5534015 47.23,70.99 C48.06,69.91 48.66,66.66 47.87,65.62 C47.27,64.84 46.29,63.83 45.5,63.84 C44.1887764,63.8161621 42.9522317,63.2252469 42.11,62.22 C40.79,60.98 39.46,59.75 38.11,58.56 C37.743845,58.1746732 37.2495216,57.9364022 36.72,57.89 C35.6065601,58.0543618 34.4977764,57.5641627 33.87,56.63 C32.02,54.3 29.7,53.63 26.79,54.03 C23.88,54.43 22.56,55.44 22.79,58.51 C22.9963104,59.8164807 22.5120974,61.1367176 21.51,62 C21.1779,62.3429973 20.9581489,62.7790113 20.88,63.25 C20.19,66.71 23.3,68.73 24.12,71.62 C24.17,71.8 24.43,71.92 24.59,72.07 C25.24,72.66 25.84,73.31 26.59,73.84 C27.3831843,74.4334802 27.8322523,75.3802653 27.79,76.37 C27.79,78.02 27.91,79.67 27.98,81.32 C20.4252549,76.4128944 14.8333476,69.0089259 12.18,60.4 C12.6020794,60.8270635 13.1478645,61.110452 13.74,61.21 C14.6,61.21 15.15,61.05 15.04,59.98 C14.93,58.91 14.99,57.77 14.85,56.68 C14.6453233,55.6807086 15.0346395,54.6529137 15.85,54.04 C16.85,53.3 17.77,52.54 18.79,51.88 C19.421582,51.3879735 20.1567862,51.0460181 20.94,50.88 C23.22,50.65 24.23,49.69 24.42,47.4 C24.5007326,46.9216986 24.700151,46.471288 25,46.09 C26.15,44.53 27.39,43.03 28.52,41.46 C30.5334103,38.7039219 33.0264965,36.3327802 35.88,34.46 C38.46,32.77 39.88,30.27 42.02,28.46 C40.8509887,28.2298708 39.722222,27.8289059 38.67,27.27 C37.8627745,26.5166473 36.767792,26.1516532 35.67,26.27 C34.74,26.39 33.76,26.27 32.85,26.45 C32.0563535,26.7006467 31.2919596,27.0359071 30.57,27.45 C29.8034473,27.901846 28.992529,28.2737962 28.15,28.56 C27.25,28.77 26.25,28.56 25.33,28.74 C23.53,29.08 22.52,28.09 21.5,26.74 L27.72,19.98 C29.72,17.83 31.46,17.73 33.57,19.73 C34.0519483,20.2828364 34.4773988,20.8824871 34.84,21.52 L35.26,20.94 L37,19.93 C37.0314284,18.655777 36.3792264,17.4619803 35.29,16.8 C34.9523996,16.5992436 34.5786619,16.4667366 34.19,16.41 C33.3070717,16.2814232 32.4692143,15.938039 31.75,15.41 C31.4946334,15.2098374 31.2199407,15.035642 30.93,14.89 C33.0120725,13.7884522 35.1913016,12.8812769 37.44,12.18 C39.0279972,12.1987457 40.5126557,12.9707681 41.44,14.26 C41.58,14.45 42.03,14.45 42.35,14.48 C45.35,14.69 46.67,16.05 46.83,19.06 C46.9467832,20.2964055 46.9968558,21.5382058 46.98,22.78 C46.87,24.73 48.28,25.59 49.58,26.32 C49.9982126,26.6545786 50.5602214,26.7478464 51.0640886,26.566291 C51.5679559,26.3847355 51.9413102,25.9544341 52.05,25.43 C52.4,24.43 53.51,22.88 54.26,22.89 C57.06,22.89 59.09,21.62 61.07,19.98 C61.16,19.91 61.36,19.98 61.45,19.91 C62.68,18.82 64.17,17.97 64.1,15.91 C64.1420274,15.1722436 64.4268069,14.4690843 64.91,13.91 C71.643692,16.9246236 77.3655051,21.8166349 81.39,28 C81.91,28.8 82.39,29.62 82.84,30.44 C82.33,30.55 81.87,30.66 81.78,30.67 Z" id="Shape"></path>
        </g>
    </g>
</svg>