<?xml version="1.0" encoding="UTF-8"?>
<svg width="1440px" height="1024px" viewBox="0 0 1440 1024" version="1.1" xmlns="http://www.w3.org/2000/svg" xmlns:xlink="http://www.w3.org/1999/xlink">
    <!-- Generator: Sketch 46.2 (44496) - http://www.bohemiancoding.com/sketch -->
    <title>Desktop HD</title>
    <desc>Created with Sketch.</desc>
    <defs></defs>
    <g id="Page-1" stroke="none" stroke-width="1" fill="none" fill-rule="evenodd">
        <g id="Desktop-HD" stroke="#DFDFDF">
            <rect id="Rectangle-Copy-2" x="232.5" y="0.5" width="161" height="129"></rect>
            <rect id="Rectangle-Copy-44" x="808.5" y="0.5" width="161" height="129"></rect>
            <rect id="Rectangle-Copy-80" x="1152.5" y="0.5" width="134" height="129"></rect>
            <rect id="Rectangle-Copy-25" x="232.5" y="129.5" width="161" height="73"></rect>
            <rect id="Rectangle-Copy-45" x="808.5" y="129.5" width="161" height="73"></rect>
            <rect id="Rectangle-Copy-81" x="1152.5" y="129.5" width="134" height="73"></rect>
            <rect id="Rectangle-Copy-26" x="232.5" y="202.5" width="161" height="214"></rect>
            <rect id="Rectangle-Copy-46" x="808.5" y="202.5" width="161" height="214"></rect>
            <rect id="Rectangle-Copy-82" x="1152.5" y="202.5" width="134" height="214"></rect>
            <rect id="Rectangle-Copy-27" x="232.5" y="416.5" width="161" height="196"></rect>
            <rect id="Rectangle-Copy-47" x="808.5" y="416.5" width="161" height="196"></rect>
            <rect id="Rectangle-Copy-83" x="1152.5" y="416.5" width="134" height="196"></rect>
            <rect id="Rectangle-Copy-28" x="232.5" y="612.5" width="161" height="105"></rect>
            <rect id="Rectangle-Copy-48" x="808.5" y="612.5" width="161" height="105"></rect>
            <rect id="Rectangle-Copy-84" x="1152.5" y="612.5" width="134" height="105"></rect>
            <rect id="Rectangle-Copy-29" x="232.5" y="717.5" width="161" height="62"></rect>
            <rect id="Rectangle-Copy-49" x="808.5" y="717.5" width="161" height="62"></rect>
            <rect id="Rectangle-Copy-85" x="1152.5" y="717.5" width="134" height="62"></rect>
            <rect id="Rectangle-Copy-30" x="232.5" y="779.5" width="161" height="150"></rect>
            <rect id="Rectangle-Copy-50" x="808.5" y="779.5" width="161" height="150"></rect>
            <rect id="Rectangle-Copy-86" x="1152.5" y="779.5" width="134" height="150"></rect>
            <rect id="Rectangle-Copy-31" x="232.5" y="929.5" width="161" height="94"></rect>
            <rect id="Rectangle-Copy-51" x="808.5" y="929.5" width="161" height="94"></rect>
            <rect id="Rectangle-Copy-87" x="1152.5" y="929.5" width="134" height="94"></rect>
            <rect id="Rectangle-Copy-6" x="0.5" y="0.5" width="161" height="150"></rect>
            <rect id="Rectangle-Copy-52" x="576.5" y="0.5" width="161" height="150"></rect>
            <rect id="Rectangle-Copy-13" x="0.5" y="150.5" width="161" height="105"></rect>
            <rect id="Rectangle-Copy-53" x="576.5" y="150.5" width="161" height="105"></rect>
            <rect id="Rectangle-Copy-14" x="0.5" y="255.5" width="161" height="187"></rect>
            <rect id="Rectangle-Copy-54" x="576.5" y="255.5" width="161" height="187"></rect>
            <rect id="Rectangle-Copy-15" x="0.5" y="442.5" width="161" height="105"></rect>
            <rect id="Rectangle-Copy-55" x="576.5" y="442.5" width="161" height="105"></rect>
            <rect id="Rectangle-Copy-16" x="0.5" y="547.5" width="161" height="129"></rect>
            <rect id="Rectangle-Copy-56" x="576.5" y="547.5" width="161" height="129"></rect>
            <rect id="Rectangle-Copy-17" x="0.5" y="676.5" width="161" height="214"></rect>
            <rect id="Rectangle-Copy-57" x="576.5" y="676.5" width="161" height="214"></rect>
            <rect id="Rectangle-Copy-18" x="0.5" y="890.5" width="161" height="133"></rect>
            <rect id="Rectangle-Copy-58" x="576.5" y="890.5" width="161" height="133"></rect>
            <rect id="Rectangle-Copy-4" x="464.5" y="0.5" width="112" height="105"></rect>
            <rect id="Rectangle-Copy-59" x="1040.5" y="0.5" width="112" height="105"></rect>
            <rect id="Rectangle-Copy-88" x="1345.5" y="0.5" width="94" height="105"></rect>
            <rect id="Rectangle-Copy-37" x="464.5" y="105.5" width="112" height="73"></rect>
            <rect id="Rectangle-Copy-60" x="1040.5" y="105.5" width="112" height="73"></rect>
            <rect id="Rectangle-Copy-89" x="1345.5" y="105.5" width="94" height="73"></rect>
            <rect id="Rectangle-Copy-38" x="464.5" y="178.5" width="112" height="179"></rect>
            <rect id="Rectangle-Copy-61" x="1040.5" y="178.5" width="112" height="179"></rect>
            <rect id="Rectangle-Copy-90" x="1345.5" y="178.5" width="94" height="179"></rect>
            <rect id="Rectangle-Copy-39" x="464.5" y="357.5" width="112" height="105"></rect>
            <rect id="Rectangle-Copy-62" x="1040.5" y="357.5" width="112" height="105"></rect>
            <rect id="Rectangle-Copy-91" x="1345.5" y="357.5" width="94" height="105"></rect>
            <rect id="Rectangle-Copy-40" x="464.5" y="462.5" width="112" height="73"></rect>
            <rect id="Rectangle-Copy-63" x="1040.5" y="462.5" width="112" height="73"></rect>
            <rect id="Rectangle-Copy-92" x="1345.5" y="461.5" width="94" height="73"></rect>
            <rect id="Rectangle-Copy-41" x="464.5" y="535.5" width="112" height="187"></rect>
            <rect id="Rectangle-Copy-64" x="1040.5" y="535.5" width="112" height="187"></rect>
            <rect id="Rectangle-Copy-93" x="1345.5" y="534.5" width="94" height="187"></rect>
            <rect id="Rectangle-Copy-42" x="464.5" y="722.5" width="112" height="129"></rect>
            <rect id="Rectangle-Copy-65" x="1040.5" y="722.5" width="112" height="129"></rect>
            <rect id="Rectangle-Copy-94" x="1345.5" y="721.5" width="94" height="129"></rect>
            <rect id="Rectangle-Copy-43" x="464.5" y="851.5" width="112" height="172"></rect>
            <rect id="Rectangle-Copy-66" x="1040.5" y="851.5" width="112" height="172"></rect>
            <rect id="Rectangle-Copy-95" x="1345.5" y="850.5" width="94" height="173"></rect>
            <rect id="Rectangle-Copy" x="161.5" y="0.5" width="71" height="179"></rect>
            <rect id="Rectangle-Copy-67" x="737.5" y="0.5" width="71" height="179"></rect>
            <rect id="Rectangle-Copy-19" x="161.5" y="179.5" width="71" height="105"></rect>
            <rect id="Rectangle-Copy-68" x="737.5" y="179.5" width="71" height="105"></rect>
            <rect id="Rectangle-Copy-20" x="161.5" y="284.5" width="71" height="214"></rect>
            <rect id="Rectangle-Copy-69" x="737.5" y="284.5" width="71" height="214"></rect>
            <rect id="Rectangle-Copy-21" x="161.5" y="498.5" width="71" height="105"></rect>
            <rect id="Rectangle-Copy-70" x="737.5" y="498.5" width="71" height="105"></rect>
            <rect id="Rectangle-Copy-22" x="161.5" y="603.5" width="71" height="187"></rect>
            <rect id="Rectangle-Copy-71" x="737.5" y="603.5" width="71" height="187"></rect>
            <rect id="Rectangle-Copy-23" x="161.5" y="790.5" width="71" height="119"></rect>
            <rect id="Rectangle-Copy-72" x="737.5" y="790.5" width="71" height="119"></rect>
            <rect id="Rectangle-Copy-24" x="161.5" y="909.5" width="71" height="114"></rect>
            <rect id="Rectangle-Copy-73" x="737.5" y="909.5" width="71" height="114"></rect>
            <rect id="Rectangle-Copy-3" x="393.5" y="0.5" width="71" height="214"></rect>
            <rect id="Rectangle-Copy-74" x="969.5" y="0.5" width="71" height="214"></rect>
            <rect id="Rectangle-Copy-96" x="1286.5" y="0.5" width="59" height="214"></rect>
            <rect id="Rectangle-Copy-32" x="393.5" y="214.5" width="71" height="73"></rect>
            <rect id="Rectangle-Copy-75" x="969.5" y="214.5" width="71" height="73"></rect>
            <rect id="Rectangle-Copy-97" x="1286.5" y="214.5" width="59" height="73"></rect>
            <rect id="Rectangle-Copy-33" x="393.5" y="287.5" width="71" height="150"></rect>
            <rect id="Rectangle-Copy-76" x="969.5" y="287.5" width="71" height="150"></rect>
            <rect id="Rectangle-Copy-98" x="1286.5" y="287.5" width="59" height="150"></rect>
            <rect id="Rectangle-Copy-34" x="393.5" y="437.5" width="71" height="214"></rect>
            <rect id="Rectangle-Copy-77" x="969.5" y="437.5" width="71" height="214"></rect>
            <rect id="Rectangle-Copy-99" x="1286.5" y="437.5" width="59" height="214"></rect>
            <rect id="Rectangle-Copy-35" x="393.5" y="651.5" width="71" height="179"></rect>
            <rect id="Rectangle-Copy-78" x="969.5" y="651.5" width="71" height="179"></rect>
            <rect id="Rectangle-Copy-100" x="1286.5" y="651.5" width="59" height="179"></rect>
            <rect id="Rectangle-Copy-36" x="393.5" y="830.5" width="71" height="193"></rect>
            <rect id="Rectangle-Copy-79" x="969.5" y="830.5" width="71" height="193"></rect>
            <rect id="Rectangle-Copy-101" x="1286.5" y="830.5" width="59" height="193"></rect>
        </g>
    </g>
</svg>