<?xml version="1.0" encoding="UTF-8"?>
<svg width="1440px" height="1024px" viewBox="0 0 1440 1024" version="1.1" xmlns="http://www.w3.org/2000/svg" xmlns:xlink="http://www.w3.org/1999/xlink">
    <!-- Generator: Sketch 46.2 (44496) - http://www.bohemiancoding.com/sketch -->
    <title>Desktop HD</title>
    <desc>Created with Sketch.</desc>
    <defs></defs>
    <g id="Page-1" stroke="none" stroke-width="6" fill="none" fill-rule="evenodd">
        <g id="Desktop-HD" stroke="#F8F8F8">
            <rect id="Rectangle-Copy-2" transform="translate(36.088327, 72.552596) rotate(-15.000000) translate(-36.088327, -72.552596) " x="-72.4116731" y="-14.4474039" width="217" height="174"></rect>
            <rect id="Rectangle-Copy-25" transform="translate(71.158308, 203.435546) rotate(-15.000000) translate(-71.158308, -203.435546) " x="-37.3416925" y="153.935546" width="217" height="99"></rect>
            <rect id="Rectangle-Copy-45" transform="translate(818.784897, 3.109605) rotate(-15.000000) translate(-818.784897, -3.109605) " x="710.284897" y="-46.3903954" width="217" height="99"></rect>
            <rect id="Rectangle-Copy-26" transform="translate(121.239793, 390.342193) rotate(-15.000000) translate(-121.239793, -390.342193) " x="12.7397928" y="246.342193" width="217" height="288"></rect>
            <rect id="Rectangle-Copy-46" transform="translate(868.866382, 190.016252) rotate(-15.000000) translate(-868.866382, -190.016252) " x="760.366382" y="46.016252" width="217" height="288"></rect>
            <rect id="Rectangle-Copy-82" transform="translate(1298.220412, 74.971186) rotate(-15.000000) translate(-1298.220412, -74.971186) " x="1208.22041" y="-69.0288135" width="180" height="288"></rect>
            <rect id="Rectangle-Copy-27" transform="translate(192.415030, 655.971795) rotate(-15.000000) translate(-192.415030, -655.971795) " x="83.9150302" y="523.971795" width="217" height="264"></rect>
            <rect id="Rectangle-Copy-47" transform="translate(940.041620, 455.645854) rotate(-15.000000) translate(-940.041620, -455.645854) " x="831.54162" y="323.645854" width="217" height="264"></rect>
            <rect id="Rectangle-Copy-83" transform="translate(1369.395649, 340.600789) rotate(-15.000000) translate(-1369.395649, -340.600789) " x="1279.39565" y="208.600789" width="180" height="264"></rect>
            <rect id="Rectangle-Copy-28" transform="translate(244.955296, 852.054738) rotate(-15.000000) translate(-244.955296, -852.054738) " x="136.455296" y="781.054738" width="217" height="142"></rect>
            <rect id="Rectangle-Copy-48" transform="translate(992.581886, 651.728797) rotate(-15.000000) translate(-992.581886, -651.728797) " x="884.081886" y="580.728797" width="217" height="142"></rect>
            <rect id="Rectangle-Copy-84" transform="translate(1421.935916, 536.683731) rotate(-15.000000) translate(-1421.935916, -536.683731) " x="1331.93592" y="465.683731" width="180" height="142"></rect>
            <rect id="Rectangle-Copy-29" transform="translate(273.943029, 960.238430) rotate(-15.000000) translate(-273.943029, -960.238430) " x="165.443029" y="918.23843" width="217" height="84"></rect>
            <rect id="Rectangle-Copy-49" transform="translate(1021.569619, 759.912490) rotate(-15.000000) translate(-1021.569619, -759.912490) " x="913.069619" y="717.91249" width="217" height="84"></rect>
            <rect id="Rectangle-Copy-85" transform="translate(1450.923649, 644.867424) rotate(-15.000000) translate(-1450.923649, -644.867424) " x="1360.92365" y="602.867424" width="180" height="84"></rect>
            <rect id="Rectangle-Copy-30" transform="translate(310.954153, 1098.365824) rotate(-15.000000) translate(-310.954153, -1098.365824) " x="202.454153" y="997.365824" width="217" height="202"></rect>
            <rect id="Rectangle-Copy-50" transform="translate(1058.580742, 898.039883) rotate(-15.000000) translate(-1058.580742, -898.039883) " x="950.080742" y="797.039883" width="217" height="202"></rect>
            <rect id="Rectangle-Copy-86" transform="translate(1487.934772, 782.994817) rotate(-15.000000) translate(-1487.934772, -782.994817) " x="1397.93477" y="681.994817" width="180" height="202"></rect>
            <rect id="Rectangle-Copy-51" transform="translate(1100.897656, 1055.968755) rotate(-15.000000) translate(-1100.897656, -1055.968755) " x="992.397656" y="992.468755" width="217" height="127"></rect>
            <rect id="Rectangle-Copy-87" transform="translate(1530.251686, 940.923690) rotate(-15.000000) translate(-1530.251686, -940.923690) " x="1440.25169" y="877.42369" width="180" height="127"></rect>
            <rect id="Rectangle-Copy-52" transform="translate(485.969525, -33.498841) rotate(-15.000000) translate(-485.969525, 33.498841) " x="377.469525" y="-134.498841" width="217" height="202"></rect>
            <rect id="Rectangle-Copy-53" transform="translate(530.486401, 132.640401) rotate(-15.000000) translate(-530.486401, -132.640401) " x="421.986401" y="61.6404009" width="217" height="142"></rect>
            <rect id="Rectangle-Copy-54" transform="translate(581.214934, 321.961863) rotate(-15.000000) translate(-581.214934, -321.961863) " x="472.714934" y="195.961863" width="217" height="252"></rect>
            <rect id="Rectangle-Copy-15" transform="translate(-115.683123, 711.609266) rotate(-15.000000) translate(115.683123, -711.609266) " x="-224.183123" y="640.609266" width="217" height="142"></rect>
            <rect id="Rectangle-Copy-55" transform="translate(631.943467, 511.283325) rotate(-15.000000) translate(-631.943467, -511.283325) " x="523.443467" y="440.283325" width="217" height="142"></rect>
            <rect id="Rectangle-Copy-16" transform="translate(-74.789714, 864.225546) rotate(-15.000000) translate(74.789714, -864.225546) " x="-183.289714" y="777.225546" width="217" height="174"></rect>
            <rect id="Rectangle-Copy-56" transform="translate(672.836876, 663.899605) rotate(-15.000000) translate(-672.836876, -663.899605) " x="564.336876" y="576.899605" width="217" height="174"></rect>
            <rect id="Rectangle-Copy-17" transform="translate(-15.261333, 1086.388486) rotate(-15.000000) translate(15.261333, -1086.388486) " x="-123.761333" y="942.388486" width="217" height="288"></rect>
            <rect id="Rectangle-Copy-57" transform="translate(732.365256, 886.062545) rotate(-15.000000) translate(-732.365256, -886.062545) " x="623.865256" y="742.062545" width="217" height="288"></rect>
            <rect id="Rectangle-Copy-58" transform="translate(792.799503, 1111.606226) rotate(-15.000000) translate(-792.799503, -1111.606226) " x="684.299503" y="1022.10623" width="217" height="179"></rect>
            <rect id="Rectangle-Copy-4" transform="translate(301.440528, -15.112731) rotate(-15.000000) translate(-301.440528, 15.112731) " x="225.940528" y="-86.1127307" width="151" height="142"></rect>
            <rect id="Rectangle-Copy-37" transform="translate(332.369404, 100.315406) rotate(-15.000000) translate(-332.369404, -100.315406) " x="256.869404" y="50.8154055" width="151" height="99"></rect>
            <rect id="Rectangle-Copy-38" transform="translate(376.109822, 263.556870) rotate(-15.000000) translate(-376.109822, -263.556870) " x="300.609822" y="143.05687" width="151" height="241"></rect>
            <rect id="Rectangle-Copy-61" transform="translate(1123.736412, 63.230929) rotate(-15.000000) translate(-1123.736412, -63.230929) " x="1048.23641" y="-57.2690708" width="151" height="241"></rect>
            <rect id="Rectangle-Copy-90" transform="translate(1508.174891, -39.779051) rotate(-15.000000) translate(-1508.174891, 39.779051) " x="1444.67489" y="-160.279051" width="127" height="241"></rect>
            <rect id="Rectangle-Copy-39" transform="translate(425.673669, 448.531666) rotate(-15.000000) translate(-425.673669, -448.531666) " x="350.173669" y="377.531666" width="151" height="142"></rect>
            <rect id="Rectangle-Copy-62" transform="translate(1173.300259, 248.205725) rotate(-15.000000) translate(-1173.300259, -248.205725) " x="1097.80026" y="177.205725" width="151" height="142"></rect>
            <rect id="Rectangle-Copy-40" transform="translate(456.602545, 563.959802) rotate(-15.000000) translate(-456.602545, -563.959802) " x="381.102545" y="514.459802" width="151" height="99"></rect>
            <rect id="Rectangle-Copy-63" transform="translate(1204.229135, 363.633861) rotate(-15.000000) translate(-1204.229135, -363.633861) " x="1128.72913" y="314.133861" width="151" height="99"></rect>
            <rect id="Rectangle-Copy-41" transform="translate(501.766469, 732.513859) rotate(-15.000000) translate(-501.766469, -732.513859) " x="426.266469" y="606.513859" width="151" height="252"></rect>
            <rect id="Rectangle-Copy-64" transform="translate(1249.393058, 532.187918) rotate(-15.000000) translate(-1249.393058, -532.187918) " x="1173.89306" y="406.187918" width="151" height="252"></rect>
            <rect id="Rectangle-Copy-42" transform="translate(556.894925, 938.256060) rotate(-15.000000) translate(-556.894925, -938.256060) " x="481.394925" y="851.25606" width="151" height="174"></rect>
            <rect id="Rectangle-Copy-65" transform="translate(1304.521515, 737.930119) rotate(-15.000000) translate(-1304.521515, -737.930119) " x="1229.02151" y="650.930119" width="151" height="174"></rect>
            <rect id="Rectangle-Copy-43" transform="translate(609.176372, 1133.373077) rotate(-15.000000) translate(-609.176372, -1133.373077) " x="533.676372" y="1017.37308" width="151" height="232"></rect>
            <rect id="Rectangle-Copy-66" transform="translate(1356.802962, 933.047136) rotate(-15.000000) translate(-1356.802962, -933.047136) " x="1281.30296" y="817.047136" width="151" height="232"></rect>
            <rect id="Rectangle-Copy-67" transform="translate(642.183888, -55.168468) rotate(-15.000000) translate(-642.183888, 55.168468) " x="594.183888" y="-175.668468" width="96" height="241"></rect>
            <rect id="Rectangle-Copy-19" transform="translate(-56.844780, 330.391088) rotate(-15.000000) translate(56.844780, -330.391088) " x="-104.84478" y="259.391088" width="96" height="142"></rect>
            <rect id="Rectangle-Copy-68" transform="translate(691.747736, 129.806328) rotate(-15.000000) translate(-691.747736, -129.806328) " x="643.747736" y="58.8063276" width="96" height="142"></rect>
            <rect id="Rectangle-Copy-20" transform="translate(-1.457504, 537.099214) rotate(-15.000000) translate(1.457504, -537.099214) " x="-49.4575041" y="393.099214" width="96" height="288"></rect>
            <rect id="Rectangle-Copy-69" transform="translate(747.135011, 336.514454) rotate(-15.000000) translate(-747.135011, -336.514454) " x="699.135011" y="192.514454" width="96" height="288"></rect>
            <rect id="Rectangle-Copy-21" transform="translate(54.188591, 744.773267) rotate(-15.000000) translate(-54.188591, -744.773267) " x="6.1885906" y="673.773267" width="96" height="142"></rect>
            <rect id="Rectangle-Copy-70" transform="translate(802.781106, 544.188507) rotate(-15.000000) translate(-802.781106, -544.188507) " x="754.781106" y="473.188507" width="96" height="142"></rect>
            <rect id="Rectangle-Copy-22" transform="translate(104.917123, 934.094729) rotate(-15.000000) translate(-104.917123, -934.094729) " x="56.9171234" y="808.094729" width="96" height="252"></rect>
            <rect id="Rectangle-Copy-71" transform="translate(853.509639, 733.509969) rotate(-15.000000) translate(-853.509639, -733.509969) " x="805.509639" y="607.509969" width="96" height="252"></rect>
            <rect id="Rectangle-Copy-72" transform="translate(906.567543, 931.524763) rotate(-15.000000) translate(-906.567543, -931.524763) " x="858.567543" y="851.524763" width="96" height="160"></rect>
            <rect id="Rectangle-Copy-73" transform="translate(947.202133, 1083.175118) rotate(-15.000000) translate(-947.202133, -1083.175118) " x="899.202133" y="1006.17512" width="96" height="154"></rect>
            <rect id="Rectangle-Copy-3" transform="translate(201.042478, 87.364007) rotate(-15.000000) translate(-201.042478, -87.364007) " x="153.042478" y="-56.6359933" width="96" height="288"></rect>
            <rect id="Rectangle-Copy-74" transform="translate(949.634994, -113.220753) rotate(-15.000000) translate(-949.634994, 113.220753) " x="901.634994" y="-257.220753" width="96" height="288"></rect>
            <rect id="Rectangle-Copy-32" transform="translate(251.123964, 274.270654) rotate(-15.000000) translate(-251.123964, -274.270654) " x="203.123964" y="224.770654" width="96" height="99"></rect>
            <rect id="Rectangle-Copy-75" transform="translate(999.716479, 73.685894) rotate(-15.000000) translate(-999.716479, -73.685894) " x="951.716479" y="24.1858941" width="96" height="99"></rect>
            <rect id="Rectangle-Copy-97" transform="translate(1403.473474, -34.500467) rotate(-15.000000) translate(-1403.473474, 34.500467) " x="1363.47347" y="-84.0004668" width="80" height="99"></rect>
            <rect id="Rectangle-Copy-33" transform="translate(289.817411, 418.676565) rotate(-15.000000) translate(-289.817411, -418.676565) " x="241.817411" y="317.676565" width="96" height="202"></rect>
            <rect id="Rectangle-Copy-76" transform="translate(1038.409926, 218.091805) rotate(-15.000000) translate(-1038.409926, -218.091805) " x="990.409926" y="117.091805" width="96" height="202"></rect>
            <rect id="Rectangle-Copy-98" transform="translate(1442.166922, 109.905444) rotate(-15.000000) translate(-1442.166922, -109.905444) " x="1402.16692" y="8.90544427" width="80" height="202"></rect>
            <rect id="Rectangle-Copy-34" transform="translate(353.228077, 655.328393) rotate(-15.000000) translate(-353.228077, -655.328393) " x="305.228077" y="511.328393" width="96" height="288"></rect>
            <rect id="Rectangle-Copy-77" transform="translate(1101.820592, 454.743633) rotate(-15.000000) translate(-1101.820592, -454.743633) " x="1053.82059" y="310.743633" width="96" height="288"></rect>
            <rect id="Rectangle-Copy-99" transform="translate(1505.577588, 346.557272) rotate(-15.000000) translate(-1505.577588, -346.557272) " x="1465.57759" y="202.557272" width="80" height="288"></rect>
            <rect id="Rectangle-Copy-35" transform="translate(421.426895, 909.849848) rotate(-15.000000) translate(-421.426895, -909.849848) " x="373.426895" y="789.349848" width="96" height="241"></rect>
            <rect id="Rectangle-Copy-78" transform="translate(1170.019411, 709.265088) rotate(-15.000000) translate(-1170.019411, -709.265088) " x="1122.01941" y="588.765088" width="96" height="241"></rect>
            <rect id="Rectangle-Copy-36" transform="translate(486.261066, 1151.814267) rotate(-15.000000) translate(-486.261066, -1151.814267) " x="438.261066" y="1021.81427" width="96" height="260"></rect>
            <rect id="Rectangle-Copy-79" transform="translate(1234.853582, 951.229507) rotate(-15.000000) translate(-1234.853582, -951.229507) " x="1186.85358" y="821.229507" width="96" height="260"></rect>
        </g>
    </g>
</svg>
