<svg version="1" xmlns="http://www.w3.org/2000/svg" width="666.667" height="666.667" viewBox="0 0 500.000000 500.000000"><path d="M121.1.7c0 .4 7.3 28 16.3 61.3 14.1 52.3 16.1 60.6 14.7 61.2-1.2.5-111.9 30.3-148.3 39.9l-3.8 1v15.1l2.8-.6c4.9-1.3 152.5-40.8 153.6-41.2.7-.3 5 13.8 11.5 38.3 5.7 21.4 10.6 39.5 10.8 40.4.4 1.3-15.3 5.7-89.1 25.5L0 265.5v8.3c0 8.2 0 8.3 2.3 7.6 12.5-4 180.3-48.2 180.8-47.6.4.4 16 58.1 34.8 128.2 18.7 70.1 34.5 128.9 35 130.6l.9 3.2-7.2 2-7.1 2 15.3.1c8.3.1 15.2 0 15.2-.2 0-.1-9.7-36.2-21.5-80.2-11.8-43.9-21.3-80.1-21.1-80.3.8-.8 77.1-20.9 77.3-20.3 1.7 5.2 47.3 177.3 47.3 178.4 0 .8-1 1.8-2.2 2-1.3.2 2.5.5 8.5.6 6.3 0 10.7-.3 10.7-.9 0-.5-5.6-21.7-12.4-47.2-6.9-25.4-12.3-46.4-12.1-46.6.1-.2 28.8-8 63.6-17.3 34.9-9.3 64.1-17.2 65-17.4 1.3-.4 3.7 7.4 14 45.9l12.4 46.5.3-27.5.2-27.6-23-86.1c-12.7-47.3-22.9-86.5-22.7-87.1.3-.6 10.6-3.8 23.1-7.1l22.6-6v-15.3l-12.7 3.4c-28.5 7.6-37.2 9.8-37.6 9.4-.7-.8-32.5-120.5-32.2-121 .2-.3 18.8-5.5 41.4-11.5l41.1-11V59.1l-6.7 1.9c-46 12.5-79.6 21.1-80.2 20.4-.5-.5-5.5-18.2-11.1-39.4-5.7-21.2-10.5-39.3-10.8-40.3-.4-1.4-1.6-1.7-7.8-1.7-4.1 0-7.4.4-7.4 1 0 .5 1.6 6.9 3.6 14.1 1.9 7.2 3.4 13.2 3.2 13.3-.5.3-129.2 34.6-129.9 34.6-.3 0-4.4-14.2-9-31.5L235.5 0H219.2l.8 3.2c10.2 37.5 54.9 205.2 54.8 205.3-.8.5-77 20.6-77.3 20.3-.1-.2-14-51.6-30.7-114.3L136.3.5l-7.7-.3c-4.2-.2-7.6.1-7.5.5zm267.3 47.5c7.4 25.9 19.7 74.1 19 74.7-.9.8-125.6 34.3-128.3 34.5-1 .1-4.3-10.8-11.7-38.4-5.7-21.2-10.4-39.2-10.4-40 0-1.2 14.2-5.4 63.8-18.7 35-9.5 64.2-17.2 64.9-17.2.6-.1 1.8 2.3 2.7 5.1zm39.5 147.3c8.4 31.3 21.4 79.8 28.9 107.7 7.4 28 13.3 51.1 12.9 51.4-.3.4-29.5 8.4-64.9 17.9-43.7 11.7-64.5 16.9-64.9 16.1-1.1-1.9-58.1-215.7-57.7-216.2 1-.9 129.3-35 129.9-34.5.3.3 7.5 26.2 15.8 57.6zM289.7 263c5.7 21.2 10.2 39.2 10 40-.1 1-11.6 4.5-38.2 11.6-34.3 9.2-38.1 10-38.7 8.4-1.4-3.8-21-78.1-20.7-78.4.8-.8 74.4-20.4 75.8-20.3 1 .1 4.6 12 11.8 38.7zM.1 361.8c-.1 20.8.3 34.1.8 33.7.5-.3 1.6 1.8 2.5 4.7 1.2 4.2 21.7 80.9 25.7 96l1 3.8H38c4.4 0 8-.4 8-.8 0-.5-10.3-39.3-22.9-86.3l-23-85.4v34.3zM488.5 497l-10 2.8 10.8.1 10.7.1v-3c0-1.7-.3-3-.7-2.9-.5.1-5.3 1.4-10.8 2.9z"/></svg>