<?xml version="1.0" encoding="UTF-8"?>
<svg width="98px" height="82px" viewBox="0 0 98 82" version="1.1" xmlns="http://www.w3.org/2000/svg" xmlns:xlink="http://www.w3.org/1999/xlink">
    <title>Savings</title>
    <defs></defs>
    <g id="Page-1" stroke="none" stroke-width="1" fill="none" fill-rule="evenodd">
        <g id="noun_793122_cc" fill-rule="nonzero" fill="#000000">
            <path d="M32.18,31.55 C32.18,33.9579615 30.2279615,35.91 27.82,35.91 C25.4120385,35.91 23.46,33.9579615 23.46,31.55 C23.46,29.1420385 25.4120385,27.19 27.82,27.19 C30.2279615,27.19 32.18,29.1420385 32.18,31.55 Z M57.7,34.09 C56.4030998,33.4091883 55.0674853,32.8048227 53.7,32.28 L53.18,32.06 C52.3990217,31.750437 51.6652321,31.3330522 51,30.82 C50.5823477,30.5322843 50.3468412,30.0460774 50.38,29.54 C50.4903508,29.0175409 50.8718477,28.5940794 51.38,28.43 C51.7651314,28.2762335 52.1753356,28.1948707 52.59,28.19 C54.3672499,28.076035 56.1439905,28.4203646 57.75,29.19 C58.2411378,29.4835879 58.8345035,29.5527532 59.38,29.38 C59.85845,29.1076844 60.1943877,28.6402927 60.3,28.1 C60.53,27.4 60.73,26.7 60.93,25.99 L61.17,25.16 C61.332714,24.7092899 61.3079239,24.2121579 61.1011781,23.7798713 C60.8944324,23.3475848 60.5229948,23.0162407 60.07,22.86 C58.8930692,22.334427 57.6526019,21.96464 56.38,21.76 C55.46,21.62 55.46,21.62 55.45,20.69 C55.45,18.19 55.2,17.69 52.67,17.69 L51.36,17.69 C49.89,17.69 49.36,18.25 49.36,19.69 C49.36,20.01 49.36,20.32 49.36,20.63 L49.36,21.13 C49.36,21.97 49.36,21.97 48.52,22.27 C44.75,23.64 42.73,26.22 42.52,29.94 C42.33,33.13 43.77,35.6 46.94,37.49 C48.0874158,38.1402246 49.2844853,38.6986341 50.52,39.16 C51.04,39.37 51.52,39.58 52.08,39.8 C52.6770215,40.054756 53.2357075,40.3913138 53.74,40.8 C54.2954423,41.1646188 54.5929881,41.8151302 54.5055939,42.4737843 C54.4181996,43.1324384 53.9613085,43.6828465 53.33,43.89 C52.435866,44.261038 51.4585522,44.3853606 50.5,44.25 C48.8718676,44.0739652 47.2893931,43.6029504 45.83,42.86 C45.4850412,42.648835 45.0936706,42.5252443 44.69,42.5 C43.69,42.5 43.38,43.5 43.23,43.96 C42.97,44.79 42.74,45.63 42.48,46.56 C42.06,48.1 42.36,48.75 43.8,49.45 L43.8,49.45 C45.2827744,50.1226023 46.8561878,50.5740742 48.47,50.79 L49.04,50.89 C49.04,51.06 49.04,51.39 49.04,51.51 L49.04,53.21 C49.0024686,53.7192485 49.1842148,54.220284 49.5395084,54.5870387 C49.8948021,54.9537934 50.3898169,55.1513499 50.9,55.13 L52,55.13 L53.36,55.13 C53.8542978,55.1514535 54.3341275,54.960244 54.6781964,54.6047062 C55.0222653,54.2491684 55.1976441,53.763329 55.16,53.27 C55.16,53.05 55.16,52.83 55.16,52.61 L55.16,52.46 C55.16,51.95 55.16,51.46 55.16,50.92 C55.16,50.38 55.16,50.45 55.64,50.32 C57.5120961,49.826694 59.181135,48.7559898 60.41,47.26 C62.025409,45.3126365 62.6856423,42.7450624 62.21,40.26 C61.697912,37.6354666 60.0452807,35.3745498 57.7,34.09 L57.7,34.09 Z M98,37.62 C97.9945005,40.1085227 95.9785227,42.1245005 93.49,42.13 L92.29,42.13 C91.1122568,48.5659955 88.1177635,54.530693 83.66,59.32 L78.45,76.45 C77.5219741,79.5396375 74.6760002,81.6537895 71.45,81.65 L66.07,81.65 C62.8279757,81.6157347 59.9880045,79.4695279 59.07,76.36 L57.91,72.36 C53.7776795,72.9017374 49.5923205,72.9017374 45.46,72.36 L44.3,76.36 C43.3819955,79.4695279 40.5420243,81.6157347 37.3,81.65 L31.84,81.65 C28.6139998,81.6537895 25.7680259,79.5396375 24.84,76.45 L21,64 C14.7199089,61.170333 8.89339712,57.4264032 3.71,52.89 C1.34889918,50.7392117 0.00226157091,47.6938507 0,44.5 L0,33.95 C0.00551121919,28.9430619 4.06306192,24.8855112 9.07,24.88 L11,24.88 C12.724719,23.157348 14.2447833,21.2413289 15.53,19.17 L15.62,19.02 C15.1111703,17.5070579 14.250994,16.1362591 13.11,15.02 C11.2769234,13.1423983 10.7065272,10.3685541 11.65,7.92 C12.5848264,5.40192044 14.9014205,3.65959164 17.58,3.46 C21.8873045,3.01935726 26.2323199,3.78449544 30.13,5.67 C36.7450218,2.14113742 44.1326361,0.309696293 51.63,0.34 C72.7,0.34 90.63,14.69 92.63,33.1 L93.53,33.1 C96.006779,33.1273997 98.0001516,35.1430695 98,37.62 Z M84.25,36.62 C84.25,21.35 69.62,8.93 51.64,8.93 C44.8449282,8.87925468 38.1719708,10.7363186 32.38,14.29 L30.64,15.38 C30.2643732,15.6296828 29.7756268,15.6296828 29.4,15.38 L27.71,14.22 C25.8958331,12.9713372 23.7925899,12.2071474 21.6,12 C23.1359152,14.2419396 24.0942969,16.8285395 24.39,19.53 L24.5,20.69 C24.5269294,20.9637459 24.4521794,21.2378292 24.29,21.46 L23.62,22.41 C23.33,22.82 23.05,23.25 22.78,23.68 C20.7927435,26.8860142 18.3620008,29.7948254 15.56,32.32 L14.66,33.13 C14.450948,33.3168361 14.1803756,33.4200809 13.9,33.42 L9.07,33.42 C8.77176624,33.42 8.53,33.6617662 8.53,33.96 L8.53,44.5 C8.52983739,45.2920034 8.86391099,46.0473002 9.45,46.58 C14.1935886,50.6906599 19.5303407,54.0619499 25.28,56.58 C27.0699934,57.3902558 28.4251042,58.9311478 29,60.81 L32.76,73.15 L36.37,73.15 L38,67.43 C38.7838558,64.6768953 41.5546206,62.990911 44.36,63.56 C49.1919603,64.4938481 54.1580397,64.4938481 58.99,63.56 C59.346003,63.4924134 59.7076398,63.4589285 60.07,63.46 C62.5301719,63.4515234 64.6921625,65.0893951 65.35,67.46 L67,73.16 L70.61,73.16 L75.61,56.48 C75.9202476,55.4800175 76.4536783,54.563611 77.17,53.8 C81.6685722,49.1878322 84.2060374,43.0126167 84.25,36.57 L84.25,36.62 Z" id="Shape"></path>
        </g>
    </g>
</svg>
