<?xml version="1.0" encoding="UTF-8"?>
<svg width="96px" height="90px" viewBox="0 0 96 90" version="1.1" xmlns="http://www.w3.org/2000/svg" xmlns:xlink="http://www.w3.org/1999/xlink">
    <!-- Generator: Sketch 47 (45396) - http://www.bohemiancoding.com/sketch -->
    <title>Group</title>
    <desc>Created with Sketch.</desc>
    <defs></defs>
    <g id="Page-1" stroke="none" stroke-width="1" fill="none" fill-rule="evenodd">
        <g id="noun_1012709_cc" transform="translate(0.000000, -1.000000)" fill-rule="nonzero" fill="#000000">
            <g id="Group" transform="translate(0.000000, 0.637820)">
                <path d="M16,0.36216 C14.8988239,0.371420052 13.8912141,0.983183121 13.375,1.95591 L0.375,25.95591 C0.136480312,26.3867787 0.00769139103,26.8697371 -1.33226763e-15,27.36216 L-1.33226763e-15,32.36216 C-1.33226763e-15,37.17669 2.87981,41.36199 7,43.2684 L7,87.3622 C7.00016565,89.0189856 8.34321437,90.3620343 10,90.3622 L86,90.3622 C87.6567856,90.3620343 88.9998343,89.0189856 89,87.3622 L89,43.2684 C93.12019,41.362 96,37.1767 96,32.36217 L96,27.36217 C95.9923086,26.8697471 95.8635197,26.3867887 95.625,25.95592 L82.625,1.95592 C82.1087886,0.983189251 81.1011783,0.371422027 80,0.36216 L16,0.36216 Z M17.78125,6.36216 L24.84375,6.36216 L18.84375,24.36216 L8.03125,24.36216 L17.78125,6.36216 Z M31.15625,6.36216 L38.625,6.36216 L36.375,24.36216 L25.15625,24.36216 L31.15625,6.36216 Z M44.625,6.36216 L51.375,6.36216 L53.625,24.36216 L42.375,24.36216 L44.625,6.36216 Z M57.375,6.36216 L64.84375,6.36216 L70.84375,24.36216 L59.625,24.36216 L57.375,6.36216 Z M71.15625,6.36216 L78.21875,6.36216 L87.96875,24.36216 L77.15625,24.36216 L71.15625,6.36216 Z M6,30.36216 L18,30.36216 L18,32.36216 C18,35.7381 15.37589,38.3622 12,38.3622 C8.62411,38.3622 6,35.7381 6,32.36216 L6,30.36216 Z M24,30.36216 L36,30.36216 L36,32.36216 C36,35.7381 33.37589,38.3622 30,38.3622 C26.62411,38.3622 24,35.7381 24,32.36216 L24,30.36216 Z M42,30.36216 L54,30.36216 L54,32.36216 C54,35.7381 51.37589,38.3622 48,38.3622 C44.62411,38.3622 42,35.7381 42,32.36216 L42,30.36216 Z M60,30.36216 L72,30.36216 L72,32.36216 C72,35.7381 69.37589,38.3622 66,38.3622 C62.62411,38.3622 60,35.7381 60,32.36216 L60,30.36216 Z M78,30.36216 L90,30.36216 L90,32.36216 C90,35.7381 87.37589,38.3622 84,38.3622 C80.62411,38.3622 78,35.7381 78,32.36216 L78,30.36216 Z M21,40.2684 C23.20418,42.7764 26.42194,44.3622 30,44.3622 C33.57806,44.3622 36.79582,42.7764 39,40.2684 C41.20418,42.7764 44.42194,44.3622 48,44.3622 C51.57806,44.3622 54.79582,42.7764 57,40.2684 C59.20418,42.7764 62.42194,44.3622 66,44.3622 C69.57806,44.3622 72.79582,42.7764 75,40.2684 C76.99568,42.5391 79.82593,44.0327 83,44.2997 L83,84.3622 L45,84.3622 L45,55.3622 C44.9998343,53.7054144 43.6567856,52.3623657 42,52.3622 L22,52.3622 C20.3432144,52.3623657 19.0001657,53.7054144 19,55.3622 L19,84.3622 L13,84.3622 L13,44.2997 C16.17407,44.0327 19.00432,42.53909 21,40.26839 L21,40.2684 Z M52,52.3622 C50.3432144,52.3623657 49.0001657,53.7054144 49,55.3622 L49,69.3622 C49.0001657,71.0189856 50.3432144,72.3620343 52,72.3622 L74,72.3622 C75.6567856,72.3620343 76.9998343,71.0189856 77,69.3622 L77,55.3622 C76.9998343,53.7054144 75.6567856,52.3623657 74,52.3622 L52,52.3622 L52,52.3622 Z M25,58.3622 L39,58.3622 L39,84.3622 L25,84.3622 L25,58.3622 Z M55,58.3622 L71,58.3622 L71,66.3622 L55,66.3622 L55,58.3622 Z" id="Shape"></path>
            </g>
        </g>
    </g>
</svg>